<svg xmlns="http://www.w3.org/2000/svg" width="36" height="34" viewBox="0 0 36 34">
    <g fill="none" fill-rule="evenodd">
        <path fill="#415167" d="M0 10h24v24H0z"/>
        <g fill-rule="nonzero" transform="matrix(-1 0 0 1 21 13)">
            <path fill="#F9FBFF" d="M16.682 1.664H3.272c-.04 0-.077.015-.114.027L2.828.59A.82.82 0 0 0 2.045 0H.41A.413.413 0 0 0 0 .416v.832c0 .23.183.416.41.416h1.03l2.555 8.54-.954 1.133c-.377.448-.547 1.064-.374 1.627.222.719.847 1.179 1.567 1.179h11.72c.226 0 .41-.186.41-.416v-.832a.413.413 0 0 0-.41-.416H4.235l1.296-1.538c.033-.04.057-.083.082-.126h7.927c.634 0 1.211-.372 1.481-.956l2.855-6.168a1.37 1.37 0 0 0 .125-.57v-.117c0-.74-.59-1.34-1.318-1.34z"/>
            <circle cx="4.821" cy="16.393" r="1.607" fill="#FFF"/>
            <circle cx="14.464" cy="16.393" r="1.607" fill="#FFF"/>
        </g>
        <g transform="translate(0 -2)">
            <circle cx="26" cy="12" r="10" fill="#C7A17A"/>
            <path d="M0 0h38v38H0z"/>
            <text fill="#F9FBFF" font-family=".AppleSystemUIFont" font-size="14">
                <tspan x="22.364" y="16.818">2</tspan>
            </text>
        </g>
    </g>
</svg>
